<svg class="svg-icon" style="width: 1em;height: 1em;vertical-align: middle;fill: currentColor;overflow: hidden;" viewBox="0 0 1024 1024" version="1.1" xmlns="http://www.w3.org/2000/svg"><path d="M864 192H160c-17.67 0-32 14.33-32 32v512c0 17.67 14.33 32 32 32h224l105.37 105.37c6.25 6.25 14.44 9.37 22.63 9.37s16.38-3.12 22.63-9.37L640 768h224c17.67 0 32-14.33 32-32V224c0-17.67-14.33-32-32-32z m-32 512H613.49l-18.74 18.74L512 805.49l-82.74-82.75L410.51 704H192V256h640v448z"  /><path d="M320 448h384c17.67 0 32-14.33 32-32s-14.33-32-32-32H320c-17.67 0-32 14.33-32 32s14.33 32 32 32zM320 576h224c17.67 0 32-14.33 32-32s-14.33-32-32-32H320c-17.67 0-32 14.33-32 32s14.33 32 32 32z"  /></svg>