<svg class="svg-icon" style="width: 1em;height: 1em;vertical-align: middle;fill: currentColor;overflow: hidden;" viewBox="0 0 1024 1024" version="1.1" xmlns="http://www.w3.org/2000/svg"><path d="M519.8 934.5H125.7c-34.2 0-62-27.8-62-62V522.2h456.1v412.3z" fill="#EA590A" /><path d="M63.7 509.1a447.3 425.4 0 1 0 894.6 0 447.3 425.4 0 1 0-894.6 0Z" fill="#FFD301" /><path d="M297.6 513m-79.4 0a79.4 79.4 0 1 0 158.8 0 79.4 79.4 0 1 0-158.8 0Z" fill="#01AA7A" /><path d="M512.5 513m-79.4 0a79.4 79.4 0 1 0 158.8 0 79.4 79.4 0 1 0-158.8 0Z" fill="#01AA7A" /><path d="M727.4 513m-79.4 0a79.4 79.4 0 1 0 158.8 0 79.4 79.4 0 1 0-158.8 0Z" fill="#01AA7A" /></svg>