<svg class="svg-icon" style="width: 1em;height: 1em;vertical-align: middle;fill: currentColor;overflow: hidden;" viewBox="0 0 1024 1024" version="1.1" xmlns="http://www.w3.org/2000/svg"><path d="M799.5 959.6H202.1c-49.2 0-84.5-41.7-70.4-83.2L216 627.6c9.3-27.4 37.9-46.2 70.4-46.2h428.8c32.5 0 61.1 18.8 70.4 46.2l84.3 248.7c14.1 41.5-21.2 83.3-70.4 83.3z" fill="#0D4D90" /><path d="M798.8 357.1c0 180.5-298 358.9-298 358.9s-298-178.4-298-358.9 133.4-294.8 298-294.8 298 114.3 298 294.8z" fill="#EA590A" /><path d="M500.8 341.1m-111.1 0a111.1 111.1 0 1 0 222.2 0 111.1 111.1 0 1 0-222.2 0Z" fill="#FFD301" /></svg>